<svg xmlns="http://www.w3.org/2000/svg" xmlns:xlink="http://www.w3.org/1999/xlink" width="500" zoomAndPan="magnify" viewBox="0 0 375 374.999991" height="500" preserveAspectRatio="xMidYMid meet" version="1.0"><defs><clipPath id="4d826e3b27"><path d="M 131 322 L 160 322 L 160 353 L 131 353 Z M 131 322 " clip-rule="nonzero"/></clipPath><clipPath id="1e906c9ae9"><path d="M 133.140625 333.609375 C 130.015625 341.664062 133.140625 349.867188 140.097656 351.847656 C 147.054688 353.824219 155.410156 348.707031 158.402344 340.464844 C 161.390625 332.226562 158.027344 324.363281 151.089844 322.550781 C 144.152344 320.738281 136.21875 325.621094 133.140625 333.609375 Z M 133.140625 333.609375 " clip-rule="nonzero"/></clipPath><clipPath id="21f924b391"><path d="M 90 117 L 287 117 L 287 331 L 90 331 Z M 90 117 " clip-rule="nonzero"/></clipPath><clipPath id="7fe102b8a4"><path d="M 286.265625 138.285156 L 275.976562 172.085938 L 229.671875 324.109375 C 228.253906 328.761719 223.621094 331.6875 219.363281 330.597656 L 170.691406 318.152344 C 169.980469 316.796875 169.140625 315.53125 168.164062 314.351562 C 167.1875 313.171875 166.101562 312.109375 164.902344 311.15625 C 163.703125 310.203125 162.417969 309.386719 161.046875 308.699219 C 159.675781 308.015625 158.25 307.480469 156.769531 307.09375 C 150.476562 305.445312 143.734375 306.539062 137.636719 309.679688 L 94.195312 298.589844 C 90.570312 297.664062 89.144531 293.546875 90.96875 289.414062 L 98.484375 272.414062 L 164.925781 122.058594 C 165.289062 121.316406 165.753906 120.640625 166.320312 120.035156 C 166.890625 119.433594 167.535156 118.929688 168.253906 118.519531 C 168.976562 118.113281 169.742188 117.820312 170.554688 117.648438 C 171.363281 117.472656 172.183594 117.421875 173.007812 117.496094 L 281.46875 131.617188 C 285.074219 132.085938 287.253906 135.058594 286.265625 138.285156 Z M 286.265625 138.285156 " clip-rule="nonzero"/></clipPath><clipPath id="00df1d99e6"><path d="M 28.28125 49 L 345 49 L 345 357.210938 L 28.28125 357.210938 Z M 28.28125 49 " clip-rule="nonzero"/></clipPath><clipPath id="7efa48d239"><path d="M 186.5625 49.738281 C 182.886719 49.738281 179.214844 49.867188 175.546875 50.121094 C 171.882812 50.375 168.230469 50.757812 164.589844 51.265625 C 160.949219 51.777344 157.332031 52.410156 153.738281 53.171875 C 150.140625 53.933594 146.578125 54.820312 143.042969 55.828125 C 139.511719 56.839844 136.015625 57.96875 132.5625 59.222656 C 129.109375 60.476562 125.703125 61.847656 122.34375 63.335938 C 118.984375 64.824219 115.683594 66.429688 112.4375 68.148438 C 109.191406 69.871094 106.007812 71.699219 102.890625 73.640625 C 99.773438 75.582031 96.726562 77.628906 93.75 79.785156 C 90.773438 81.9375 87.878906 84.191406 85.058594 86.546875 C 82.242188 88.902344 79.511719 91.351562 76.863281 93.898438 C 74.21875 96.441406 71.664062 99.078125 69.199219 101.800781 C 66.738281 104.523438 64.375 107.328125 62.109375 110.214844 C 59.839844 113.101562 57.679688 116.066406 55.621094 119.105469 C 53.5625 122.144531 51.609375 125.25 49.769531 128.421875 C 47.925781 131.597656 46.195312 134.832031 44.582031 138.125 C 42.964844 141.421875 41.464844 144.765625 40.085938 148.164062 C 38.703125 151.5625 37.441406 155.007812 36.296875 158.492188 C 35.15625 161.980469 34.140625 165.503906 33.242188 169.058594 C 32.347656 172.617188 31.578125 176.203125 30.933594 179.8125 C 30.289062 183.425781 29.769531 187.054688 29.378906 190.699219 C 28.988281 194.347656 28.726562 198.003906 28.589844 201.671875 C 28.453125 205.335938 28.445312 209 28.566406 212.667969 C 28.6875 216.332031 28.9375 219.992188 29.3125 223.640625 C 29.691406 227.289062 30.191406 230.917969 30.824219 234.535156 C 31.453125 238.148438 32.207031 241.734375 33.089844 245.296875 C 33.96875 248.855469 34.972656 252.382812 36.101562 255.875 C 37.230469 259.367188 38.476562 262.8125 39.84375 266.21875 C 41.214844 269.621094 42.699219 272.976562 44.300781 276.277344 C 45.902344 279.578125 47.621094 282.816406 49.449219 286 C 51.277344 289.179688 53.214844 292.292969 55.261719 295.339844 C 57.308594 298.386719 59.460938 301.359375 61.714844 304.257812 L 60.992188 324.890625 L 90.167969 260.207031 L 155.949219 115.585938 C 156.316406 114.851562 156.738281 114.152344 157.214844 113.480469 C 157.6875 112.8125 158.210938 112.179688 158.777344 111.585938 C 159.34375 110.996094 159.953125 110.449219 160.605469 109.945312 C 161.253906 109.441406 161.9375 108.992188 162.652344 108.589844 C 163.371094 108.1875 164.113281 107.84375 164.878906 107.550781 C 165.648438 107.257812 166.433594 107.027344 167.238281 106.851562 C 168.039062 106.675781 168.851562 106.5625 169.671875 106.507812 C 170.492188 106.453125 171.308594 106.457031 172.128906 106.523438 L 291.074219 121.210938 C 298.429688 122.117188 302.933594 128.039062 301.058594 134.511719 L 236.5 357.210938 C 238.523438 356.535156 240.527344 355.816406 242.511719 355.0625 L 306.023438 135.957031 C 306.605469 134.03125 306.789062 132.074219 306.578125 130.074219 C 306.363281 128.078125 305.773438 126.199219 304.800781 124.4375 C 310.664062 126.222656 313.984375 131.507812 312.324219 137.222656 L 250.082031 351.953125 C 252.140625 351.050781 254.175781 350.109375 256.191406 349.121094 C 258.207031 348.132812 260.203125 347.101562 262.175781 346.027344 C 264.148438 344.957031 266.097656 343.84375 268.019531 342.6875 C 269.945312 341.53125 271.84375 340.335938 273.71875 339.097656 C 275.59375 337.863281 277.4375 336.585938 279.257812 335.269531 C 281.078125 333.957031 282.867188 332.601562 284.628906 331.210938 C 286.390625 329.820312 288.121094 328.394531 289.820312 326.929688 C 291.523438 325.464844 293.191406 323.964844 294.828125 322.425781 C 296.460938 320.890625 298.066406 319.320312 299.636719 317.71875 C 301.203125 316.113281 302.738281 314.476562 304.238281 312.808594 C 305.738281 311.140625 307.199219 309.4375 308.628906 307.707031 C 310.054688 305.976562 311.441406 304.214844 312.792969 302.425781 C 314.144531 300.632812 315.457031 298.816406 316.734375 296.96875 C 318.007812 295.121094 319.242188 293.25 320.433594 291.351562 C 321.628906 289.453125 322.78125 287.527344 323.894531 285.582031 C 325.003906 283.632812 326.074219 281.664062 327.101562 279.667969 C 328.128906 277.675781 329.113281 275.660156 330.054688 273.625 C 330.996094 271.589844 331.894531 269.535156 332.75 267.464844 C 333.601562 265.390625 334.410156 263.296875 335.175781 261.191406 C 335.941406 259.082031 336.660156 256.960938 337.335938 254.820312 C 338.007812 252.683594 338.636719 250.53125 339.21875 248.367188 C 339.800781 246.199219 340.335938 244.023438 340.824219 241.835938 C 341.3125 239.648438 341.753906 237.449219 342.152344 235.242188 C 342.546875 233.035156 342.894531 230.824219 343.195312 228.601562 C 343.496094 226.378906 343.746094 224.152344 343.953125 221.917969 C 344.160156 219.6875 344.316406 217.453125 344.425781 215.210938 C 344.535156 212.972656 344.597656 210.734375 344.613281 208.492188 C 344.628906 206.25 344.59375 204.007812 344.511719 201.769531 C 344.429688 199.527344 344.300781 197.289062 344.125 195.054688 C 343.949219 192.820312 343.722656 190.589844 343.449219 188.367188 C 343.179688 186.140625 342.859375 183.921875 342.492188 181.710938 C 342.125 179.5 341.710938 177.296875 341.25 175.101562 C 340.789062 172.90625 340.28125 170.722656 339.726562 168.550781 C 339.171875 166.378906 338.574219 164.21875 337.925781 162.074219 C 337.277344 159.925781 336.585938 157.792969 335.847656 155.675781 C 335.113281 153.558594 334.328125 151.457031 333.503906 149.375 C 332.675781 147.289062 331.804688 145.222656 330.886719 143.175781 C 329.972656 141.128906 329.011719 139.101562 328.011719 137.097656 C 327.007812 135.089844 325.964844 133.105469 324.878906 131.144531 C 323.792969 129.183594 322.664062 127.246094 321.492188 125.332031 C 320.324219 123.417969 319.113281 121.527344 317.863281 119.667969 C 316.613281 117.804688 315.324219 115.96875 313.996094 114.160156 C 312.667969 112.355469 311.300781 110.574219 309.894531 108.828125 C 308.492188 107.078125 307.050781 105.359375 305.570312 103.667969 C 304.09375 101.980469 302.582031 100.324219 301.03125 98.703125 C 299.484375 97.078125 297.902344 95.488281 296.285156 93.933594 C 294.667969 92.375 293.019531 90.855469 291.335938 89.367188 C 289.65625 87.882812 287.941406 86.433594 286.199219 85.019531 C 284.457031 83.605469 282.683594 82.230469 280.878906 80.890625 C 279.078125 79.554688 277.25 78.253906 275.390625 76.996094 C 273.53125 75.734375 271.648438 74.515625 269.738281 73.335938 C 267.828125 72.15625 265.894531 71.015625 263.9375 69.917969 C 261.976562 68.820312 259.996094 67.765625 257.992188 66.75 C 255.988281 65.738281 253.964844 64.765625 251.921875 63.839844 C 249.875 62.914062 247.8125 62.03125 245.730469 61.191406 C 243.644531 60.351562 241.546875 59.554688 239.429688 58.804688 C 237.3125 58.054688 235.179688 57.351562 233.035156 56.691406 C 230.886719 56.03125 228.726562 55.417969 226.554688 54.851562 C 224.382812 54.28125 222.199219 53.761719 220.003906 53.285156 C 217.808594 52.8125 215.601562 52.382812 213.390625 52.003906 C 211.175781 51.621094 208.957031 51.289062 206.726562 51.003906 C 204.5 50.714844 202.265625 50.476562 200.027344 50.285156 C 197.792969 50.09375 195.550781 49.949219 193.304688 49.855469 C 191.0625 49.757812 188.816406 49.710938 186.570312 49.710938 Z M 186.5625 49.738281 " clip-rule="nonzero"/></clipPath><clipPath id="9002c8e44d"><path d="M 97 17.460938 L 118 17.460938 L 118 38 L 97 38 Z M 97 17.460938 " clip-rule="nonzero"/></clipPath><clipPath id="8c3cd2e046"><path d="M 117.507812 27.347656 C 117.507812 27.996094 117.445312 28.640625 117.316406 29.277344 C 117.191406 29.914062 117.003906 30.53125 116.753906 31.132812 C 116.503906 31.730469 116.199219 32.300781 115.839844 32.84375 C 115.476562 33.382812 115.066406 33.882812 114.605469 34.339844 C 114.144531 34.800781 113.644531 35.210938 113.105469 35.570312 C 112.5625 35.929688 111.992188 36.234375 111.390625 36.484375 C 110.792969 36.730469 110.171875 36.921875 109.535156 37.046875 C 108.894531 37.171875 108.25 37.238281 107.601562 37.238281 C 106.949219 37.238281 106.304688 37.171875 105.667969 37.046875 C 105.03125 36.921875 104.410156 36.730469 103.808594 36.484375 C 103.207031 36.234375 102.636719 35.929688 102.097656 35.570312 C 101.554688 35.210938 101.054688 34.800781 100.59375 34.339844 C 100.132812 33.882812 99.722656 33.382812 99.363281 32.84375 C 99 32.300781 98.695312 31.730469 98.445312 31.132812 C 98.199219 30.53125 98.011719 29.914062 97.882812 29.277344 C 97.757812 28.640625 97.691406 27.996094 97.691406 27.347656 C 97.691406 26.699219 97.757812 26.054688 97.882812 25.417969 C 98.011719 24.78125 98.199219 24.164062 98.445312 23.5625 C 98.695312 22.964844 99 22.394531 99.363281 21.855469 C 99.722656 21.316406 100.132812 20.816406 100.59375 20.355469 C 101.054688 19.898438 101.554688 19.488281 102.097656 19.125 C 102.636719 18.765625 103.207031 18.460938 103.808594 18.210938 C 104.410156 17.964844 105.03125 17.777344 105.667969 17.648438 C 106.304688 17.523438 106.949219 17.460938 107.601562 17.460938 C 108.25 17.460938 108.894531 17.523438 109.535156 17.648438 C 110.171875 17.777344 110.792969 17.964844 111.390625 18.210938 C 111.992188 18.460938 112.5625 18.765625 113.105469 19.125 C 113.644531 19.488281 114.144531 19.898438 114.605469 20.355469 C 115.066406 20.816406 115.476562 21.316406 115.839844 21.855469 C 116.199219 22.394531 116.503906 22.964844 116.753906 23.5625 C 117.003906 24.164062 117.191406 24.78125 117.316406 25.417969 C 117.445312 26.054688 117.507812 26.699219 117.507812 27.347656 Z M 117.507812 27.347656 " clip-rule="nonzero"/></clipPath><clipPath id="977d5a1a5d"><path d="M 310 74 L 347 74 L 347 112 L 310 112 Z M 310 74 " clip-rule="nonzero"/></clipPath><clipPath id="1d80357a2a"><path d="M 346.816406 93.332031 C 346.816406 93.929688 346.789062 94.53125 346.726562 95.128906 C 346.667969 95.730469 346.582031 96.324219 346.464844 96.914062 C 346.347656 97.503906 346.199219 98.085938 346.023438 98.660156 C 345.851562 99.234375 345.648438 99.800781 345.417969 100.355469 C 345.1875 100.914062 344.929688 101.457031 344.644531 101.988281 C 344.359375 102.515625 344.050781 103.03125 343.714844 103.53125 C 343.382812 104.03125 343.023438 104.515625 342.640625 104.980469 C 342.257812 105.445312 341.855469 105.890625 341.429688 106.316406 C 341.003906 106.738281 340.554688 107.144531 340.089844 107.523438 C 339.625 107.90625 339.140625 108.265625 338.640625 108.597656 C 338.140625 108.933594 337.621094 109.242188 337.089844 109.523438 C 336.558594 109.808594 336.015625 110.066406 335.460938 110.296875 C 334.902344 110.527344 334.335938 110.726562 333.757812 110.902344 C 333.183594 111.078125 332.597656 111.222656 332.007812 111.339844 C 331.417969 111.457031 330.820312 111.546875 330.222656 111.605469 C 329.621094 111.664062 329.019531 111.691406 328.417969 111.691406 C 327.816406 111.691406 327.214844 111.664062 326.613281 111.605469 C 326.015625 111.546875 325.417969 111.457031 324.828125 111.339844 C 324.238281 111.222656 323.652344 111.078125 323.078125 110.902344 C 322.5 110.726562 321.933594 110.527344 321.378906 110.296875 C 320.820312 110.066406 320.277344 109.808594 319.746094 109.523438 C 319.214844 109.242188 318.695312 108.933594 318.195312 108.597656 C 317.695312 108.265625 317.210938 107.90625 316.746094 107.523438 C 316.28125 107.144531 315.835938 106.738281 315.40625 106.316406 C 314.980469 105.890625 314.578125 105.445312 314.195312 104.980469 C 313.8125 104.515625 313.453125 104.03125 313.121094 103.53125 C 312.785156 103.03125 312.476562 102.515625 312.191406 101.988281 C 311.90625 101.457031 311.648438 100.914062 311.417969 100.355469 C 311.1875 99.800781 310.984375 99.234375 310.8125 98.660156 C 310.636719 98.085938 310.488281 97.503906 310.371094 96.914062 C 310.253906 96.324219 310.167969 95.730469 310.109375 95.128906 C 310.046875 94.53125 310.019531 93.929688 310.019531 93.332031 C 310.019531 92.730469 310.046875 92.128906 310.109375 91.53125 C 310.167969 90.933594 310.253906 90.335938 310.371094 89.746094 C 310.488281 89.15625 310.636719 88.574219 310.8125 88 C 310.984375 87.425781 311.1875 86.859375 311.417969 86.304688 C 311.648438 85.746094 311.90625 85.203125 312.191406 84.675781 C 312.476562 84.144531 312.785156 83.628906 313.121094 83.128906 C 313.453125 82.628906 313.8125 82.144531 314.195312 81.679688 C 314.578125 81.214844 314.980469 80.769531 315.40625 80.34375 C 315.835938 79.921875 316.28125 79.515625 316.746094 79.136719 C 317.210938 78.753906 317.695312 78.394531 318.195312 78.0625 C 318.695312 77.726562 319.214844 77.417969 319.746094 77.136719 C 320.277344 76.851562 320.820312 76.59375 321.378906 76.363281 C 321.933594 76.136719 322.5 75.933594 323.078125 75.757812 C 323.652344 75.582031 324.238281 75.4375 324.828125 75.320312 C 325.417969 75.203125 326.015625 75.113281 326.613281 75.054688 C 327.214844 74.996094 327.816406 74.96875 328.417969 74.96875 C 329.019531 74.96875 329.621094 74.996094 330.222656 75.054688 C 330.820312 75.113281 331.417969 75.203125 332.007812 75.320312 C 332.597656 75.4375 333.183594 75.582031 333.757812 75.757812 C 334.335938 75.933594 334.902344 76.136719 335.460938 76.363281 C 336.015625 76.59375 336.558594 76.851562 337.089844 77.136719 C 337.621094 77.417969 338.140625 77.726562 338.640625 78.0625 C 339.140625 78.394531 339.625 78.753906 340.089844 79.136719 C 340.554688 79.515625 341.003906 79.921875 341.429688 80.34375 C 341.855469 80.769531 342.257812 81.214844 342.640625 81.679688 C 343.023438 82.144531 343.382812 82.628906 343.714844 83.128906 C 344.050781 83.628906 344.359375 84.144531 344.644531 84.675781 C 344.929688 85.203125 345.1875 85.746094 345.417969 86.304688 C 345.648438 86.859375 345.851562 87.425781 346.023438 88 C 346.199219 88.574219 346.347656 89.15625 346.464844 89.746094 C 346.582031 90.335938 346.667969 90.933594 346.726562 91.53125 C 346.789062 92.128906 346.816406 92.730469 346.816406 93.332031 Z M 346.816406 93.332031 " clip-rule="nonzero"/></clipPath><clipPath id="8ddf88786c"><path d="M 98 117 L 287 117 L 287 273 L 98 273 Z M 98 117 " clip-rule="nonzero"/></clipPath><clipPath id="69958f2243"><path d="M 286.265625 138.285156 L 275.976562 172.085938 L 98.484375 272.414062 L 164.925781 122.058594 C 165.289062 121.316406 165.753906 120.640625 166.320312 120.035156 C 166.890625 119.433594 167.535156 118.929688 168.253906 118.519531 C 168.976562 118.113281 169.742188 117.820312 170.554688 117.648438 C 171.363281 117.472656 172.183594 117.421875 173.007812 117.496094 L 281.46875 131.617188 C 285.074219 132.085938 287.253906 135.058594 286.265625 138.285156 Z M 286.265625 138.285156 " clip-rule="nonzero"/></clipPath></defs><rect x="-37.5" width="450" fill="#ffffff" y="-37.499999" height="449.999989" fill-opacity="1"/><rect x="-37.5" width="450" fill="#ffffff" y="-37.499999" height="449.999989" fill-opacity="1"/><rect x="-37.5" width="450" fill="#8c52ff" y="-37.499999" height="449.999989" fill-opacity="1"/><g clip-path="url(#4d826e3b27)"><g clip-path="url(#1e906c9ae9)"><path fill="#ffffff" d="M 130.015625 320.738281 L 130.015625 353.824219 L 161.390625 353.824219 L 161.390625 320.738281 Z M 130.015625 320.738281 " fill-opacity="1" fill-rule="nonzero"/></g></g><g clip-path="url(#21f924b391)"><g clip-path="url(#7fe102b8a4)"><path fill="#ffffff" d="M 89.144531 117.421875 L 89.144531 331.6875 L 287.253906 331.6875 L 287.253906 117.421875 Z M 89.144531 117.421875 " fill-opacity="1" fill-rule="nonzero"/></g></g><g clip-path="url(#00df1d99e6)"><g clip-path="url(#7efa48d239)"><path fill="#ffffff" d="M 28.445312 49.710938 L 28.445312 357.210938 L 344.628906 357.210938 L 344.628906 49.710938 Z M 28.445312 49.710938 " fill-opacity="1" fill-rule="nonzero"/></g></g><path fill="#cdbdf3" d="M 120.039062 150.339844 C 120.039062 151.28125 119.992188 152.222656 119.898438 153.160156 C 119.808594 154.097656 119.667969 155.03125 119.484375 155.953125 C 119.300781 156.878906 119.070312 157.792969 118.796875 158.695312 C 118.523438 159.597656 118.207031 160.484375 117.84375 161.351562 C 117.484375 162.222656 117.078125 163.074219 116.632812 163.90625 C 116.1875 164.738281 115.703125 165.546875 115.179688 166.328125 C 114.65625 167.113281 114.09375 167.867188 113.492188 168.597656 C 112.894531 169.324219 112.261719 170.023438 111.59375 170.691406 C 110.925781 171.355469 110.226562 171.988281 109.496094 172.585938 C 108.765625 173.183594 108.007812 173.746094 107.222656 174.269531 C 106.4375 174.792969 105.628906 175.277344 104.796875 175.71875 C 103.964844 176.164062 103.113281 176.566406 102.238281 176.929688 C 101.367188 177.289062 100.480469 177.605469 99.574219 177.878906 C 98.671875 178.152344 97.757812 178.382812 96.828125 178.566406 C 95.902344 178.75 94.972656 178.886719 94.03125 178.980469 C 93.089844 179.074219 92.148438 179.117188 91.203125 179.117188 C 90.261719 179.117188 89.316406 179.074219 88.378906 178.980469 C 87.4375 178.886719 86.503906 178.75 85.578125 178.566406 C 84.652344 178.382812 83.738281 178.152344 82.835938 177.878906 C 81.929688 177.605469 81.042969 177.289062 80.171875 176.929688 C 79.296875 176.566406 78.445312 176.164062 77.613281 175.71875 C 76.777344 175.277344 75.96875 174.792969 75.183594 174.269531 C 74.398438 173.746094 73.640625 173.183594 72.914062 172.585938 C 72.183594 171.988281 71.484375 171.355469 70.816406 170.691406 C 70.148438 170.023438 69.515625 169.324219 68.914062 168.597656 C 68.316406 167.867188 67.753906 167.113281 67.230469 166.328125 C 66.703125 165.546875 66.21875 164.738281 65.773438 163.90625 C 65.328125 163.074219 64.925781 162.222656 64.566406 161.351562 C 64.203125 160.484375 63.886719 159.597656 63.613281 158.695312 C 63.335938 157.792969 63.109375 156.878906 62.925781 155.953125 C 62.738281 155.03125 62.601562 154.097656 62.507812 153.160156 C 62.417969 152.222656 62.371094 151.28125 62.371094 150.339844 C 62.371094 149.398438 62.417969 148.457031 62.507812 147.519531 C 62.601562 146.582031 62.738281 145.652344 62.925781 144.726562 C 63.109375 143.800781 63.335938 142.886719 63.613281 141.988281 C 63.886719 141.085938 64.203125 140.199219 64.566406 139.328125 C 64.925781 138.457031 65.328125 137.605469 65.773438 136.773438 C 66.21875 135.941406 66.703125 135.136719 67.230469 134.351562 C 67.753906 133.570312 68.316406 132.8125 68.914062 132.082031 C 69.515625 131.355469 70.148438 130.65625 70.816406 129.992188 C 71.484375 129.324219 72.183594 128.691406 72.914062 128.09375 C 73.640625 127.496094 74.398438 126.9375 75.183594 126.414062 C 75.96875 125.886719 76.777344 125.40625 77.613281 124.960938 C 78.445312 124.515625 79.296875 124.113281 80.171875 123.753906 C 81.042969 123.390625 81.929688 123.074219 82.835938 122.800781 C 83.738281 122.527344 84.652344 122.300781 85.578125 122.113281 C 86.503906 121.929688 87.4375 121.792969 88.378906 121.699219 C 89.316406 121.609375 90.261719 121.5625 91.203125 121.5625 C 92.148438 121.5625 93.089844 121.609375 94.03125 121.699219 C 94.972656 121.792969 95.902344 121.929688 96.828125 122.113281 C 97.757812 122.300781 98.671875 122.527344 99.574219 122.800781 C 100.480469 123.074219 101.367188 123.390625 102.238281 123.753906 C 103.113281 124.113281 103.964844 124.515625 104.796875 124.960938 C 105.628906 125.40625 106.4375 125.886719 107.222656 126.414062 C 108.007812 126.9375 108.765625 127.496094 109.496094 128.09375 C 110.226562 128.691406 110.925781 129.324219 111.59375 129.992188 C 112.261719 130.65625 112.894531 131.355469 113.492188 132.082031 C 114.09375 132.8125 114.65625 133.570312 115.179688 134.351562 C 115.703125 135.136719 116.1875 135.941406 116.632812 136.773438 C 117.078125 137.605469 117.484375 138.457031 117.84375 139.328125 C 118.207031 140.199219 118.523438 141.085938 118.796875 141.988281 C 119.070312 142.886719 119.300781 143.800781 119.484375 144.726562 C 119.667969 145.652344 119.808594 146.582031 119.898438 147.519531 C 119.992188 148.457031 120.039062 149.398438 120.039062 150.339844 Z M 120.039062 150.339844 " fill-opacity="1" fill-rule="nonzero"/><g clip-path="url(#9002c8e44d)"><g clip-path="url(#8c3cd2e046)"><path fill="#ffffff" d="M 97.691406 17.460938 L 97.691406 37.238281 L 117.507812 37.238281 L 117.507812 17.460938 Z M 97.691406 17.460938 " fill-opacity="1" fill-rule="nonzero"/></g></g><g clip-path="url(#977d5a1a5d)"><g clip-path="url(#1d80357a2a)"><path fill="#ffffff" d="M 310.019531 74.96875 L 310.019531 111.691406 L 346.816406 111.691406 L 346.816406 74.96875 Z M 310.019531 74.96875 " fill-opacity="1" fill-rule="nonzero"/></g></g><g clip-path="url(#8ddf88786c)"><g clip-path="url(#69958f2243)"><path fill="#ffffff" d="M 98.484375 117.421875 L 98.484375 272.414062 L 287.253906 272.414062 L 287.253906 117.421875 Z M 98.484375 117.421875 " fill-opacity="1" fill-rule="nonzero"/></g></g></svg>